<svg width="60" height="60" viewBox="0 0 60 60" fill="none" xmlns="http://www.w3.org/2000/svg">
<path d="M42.4025 29.5225C42.3402 29.3702 42.2484 29.2317 42.1325 29.115L30.8825 17.865C30.6478 17.6306 30.3296 17.4991 29.9979 17.4993C29.6662 17.4995 29.3481 17.6315 29.1137 17.8662C28.8794 18.101 28.7478 18.4192 28.7481 18.7509C28.7483 19.0826 28.8803 19.4006 29.115 19.635L38.2325 28.75H18.75C18.4185 28.75 18.1005 28.8817 17.8661 29.1161C17.6317 29.3505 17.5 29.6685 17.5 30C17.5 30.3315 17.6317 30.6495 17.8661 30.8839C18.1005 31.1183 18.4185 31.25 18.75 31.25H38.2325L29.115 40.365C28.9988 40.4811 28.9066 40.6189 28.8436 40.7706C28.7806 40.9223 28.7482 41.0849 28.7481 41.2491C28.7478 41.5808 28.8794 41.899 29.1137 42.1337C29.3481 42.3685 29.6662 42.5005 29.9979 42.5007C30.3296 42.5009 30.6478 42.3694 30.8825 42.135L42.1325 30.885C42.3598 30.6559 42.4897 30.3477 42.495 30.025L42.5 30L42.4975 29.9825C42.4952 29.8245 42.4629 29.6684 42.4025 29.5225ZM30 5C16.1925 5 5 16.1925 5 30C5 43.8075 16.1925 55 30 55C43.8 54.985 54.985 43.8 55 30C55 16.1925 43.8075 5 30 5ZM30 52.5C27.0453 52.5 24.1194 51.918 21.3896 50.7873C18.6598 49.6566 16.1794 47.9992 14.0901 45.9099C12.0008 43.8206 10.3434 41.3402 9.21271 38.6104C8.08198 35.8805 7.5 32.9547 7.5 30C7.5 27.0453 8.08198 24.1194 9.21271 21.3896C10.3434 18.6598 12.0008 16.1794 14.0901 14.0901C16.1794 12.0008 18.6598 10.3434 21.3896 9.21271C24.1194 8.08198 27.0453 7.5 30 7.5C35.9653 7.50662 41.6845 9.87927 45.9026 14.0974C50.1207 18.3155 52.4934 24.0347 52.5 30C52.5 35.9674 50.1295 41.6903 45.9099 45.9099C41.6903 50.1295 35.9674 52.5 30 52.5Z" fill="#C02A2C"/>
</svg>
