<svg width="60" height="60" viewBox="0 0 60 60" fill="none" xmlns="http://www.w3.org/2000/svg">
<path d="M41.25 28.75H21.7675L30.8825 19.635C31.1102 19.3992 31.2362 19.0835 31.2333 18.7557C31.2305 18.428 31.099 18.1145 30.8673 17.8827C30.6355 17.651 30.322 17.5195 29.9942 17.5167C29.6665 17.5138 29.3507 17.6398 29.115 17.8675L17.865 29.1175C17.6338 29.3502 17.5036 29.6645 17.5025 29.9925L17.5 30C17.4997 30.1643 17.5318 30.327 17.5944 30.4788C17.657 30.6307 17.749 30.7687 17.865 30.885L29.115 42.135C29.2307 42.2516 29.3684 42.3442 29.5201 42.4074C29.6718 42.4705 29.8344 42.5031 29.9987 42.5031C30.1631 42.5031 30.3257 42.4705 30.4774 42.4074C30.6291 42.3442 30.7668 42.2516 30.8825 42.135C30.9989 42.0189 31.0913 41.8809 31.1543 41.7291C31.2173 41.5772 31.2497 41.4144 31.2497 41.25C31.2497 41.0856 31.2173 40.9228 31.1543 40.7709C31.0913 40.619 30.9989 40.4811 30.8825 40.365L21.77 31.25H41.25C41.5815 31.25 41.8995 31.1183 42.1339 30.8839C42.3683 30.6495 42.5 30.3315 42.5 30C42.5 29.6685 42.3683 29.3505 42.1339 29.1161C41.8995 28.8817 41.5815 28.75 41.25 28.75ZM30 5C16.1925 5 5 16.1925 5 30C5 43.8075 16.1925 55 30 55C43.8 54.985 54.985 43.8 55 30C55 16.1925 43.8075 5 30 5ZM30 52.5C27.0453 52.5 24.1194 51.918 21.3896 50.7873C18.6598 49.6566 16.1794 47.9992 14.0901 45.9099C12.0008 43.8206 10.3434 41.3402 9.21271 38.6104C8.08198 35.8805 7.5 32.9547 7.5 30C7.5 27.0453 8.08198 24.1194 9.21271 21.3896C10.3434 18.6598 12.0008 16.1794 14.0901 14.0901C16.1794 12.0008 18.6598 10.3434 21.3896 9.21271C24.1194 8.08198 27.0453 7.5 30 7.5C35.9653 7.50662 41.6845 9.87927 45.9026 14.0974C50.1207 18.3155 52.4934 24.0347 52.5 30C52.5 35.9674 50.1295 41.6903 45.9099 45.9099C41.6903 50.1295 35.9674 52.5 30 52.5Z" fill="#C02A2C"/>
</svg>
