<svg width="32" height="32" viewBox="0 0 32 32" fill="none" xmlns="http://www.w3.org/2000/svg">
<path d="M17.6107 11.2905H19.996C20.3267 11.2907 20.6522 11.373 20.9434 11.5299C21.2345 11.6868 21.4822 11.9135 21.6643 12.1896C21.8463 12.4657 21.9571 12.7827 21.9866 13.1121C22.0161 13.4415 21.9634 13.7731 21.8333 14.0772L16.5533 26.4012C16.4259 26.6963 16.2007 26.9384 15.9156 27.087C15.6305 27.2355 15.303 27.2813 14.9881 27.2167C14.6732 27.152 14.3902 26.9809 14.1867 26.7321C13.9832 26.4833 13.8716 26.1719 13.8707 25.8505V16.6238L11.9333 16.5638C11.4145 16.5465 10.9228 16.3282 10.562 15.955C10.2012 15.5818 9.99971 15.0829 10 14.5638V6.6665C10 6.13607 10.2107 5.62736 10.5858 5.25229C10.9609 4.87722 11.4696 4.6665 12 4.6665H15.6107C16.1411 4.6665 16.6498 4.87722 17.0249 5.25229C17.4 5.62736 17.6107 6.13607 17.6107 6.6665V11.2905Z" fill="#720708"/>
</svg>
