<svg width="180" height="180" viewBox="0 0 180 180" fill="none" xmlns="http://www.w3.org/2000/svg">
<path fill-rule="evenodd" clip-rule="evenodd" d="M52.5 22.5C50.5109 22.5 48.6032 23.2902 47.1967 24.6967C45.7902 26.1032 45 28.0109 45 30V135C45 136.989 45.7902 138.897 47.1967 140.303C48.6032 141.71 50.5109 142.5 52.5 142.5H93.75V150H52.5C48.5218 150 44.7064 148.42 41.8934 145.607C39.0804 142.794 37.5 138.978 37.5 135V30C37.5 26.0218 39.0804 22.2064 41.8934 19.3934C44.7064 16.5804 48.5218 15 52.5 15H127.5C131.478 15 135.294 16.5804 138.107 19.3934C140.92 22.2064 142.5 26.0218 142.5 30V135C142.5 138.978 140.92 142.794 138.107 145.607C135.294 148.42 131.478 150 127.5 150H116.25V142.5H127.5C129.489 142.5 131.397 141.71 132.803 140.303C134.21 138.897 135 136.989 135 135V30C135 28.0109 134.21 26.1032 132.803 24.6967C131.397 23.2902 129.489 22.5 127.5 22.5H52.5Z" fill="#720708"/>
<path fill-rule="evenodd" clip-rule="evenodd" d="M67.5 41.25C67.5 40.2554 67.8951 39.3016 68.5983 38.5984C69.3016 37.8951 70.2554 37.5 71.25 37.5H108.75C109.745 37.5 110.698 37.8951 111.402 38.5984C112.105 39.3016 112.5 40.2554 112.5 41.25C112.5 42.2446 112.105 43.1984 111.402 43.9016C110.698 44.6049 109.745 45 108.75 45H71.25C70.2554 45 69.3016 44.6049 68.5983 43.9016C67.8951 43.1984 67.5 42.2446 67.5 41.25ZM52.5 63.75C52.5 62.7554 52.8951 61.8016 53.5984 61.0983C54.3016 60.3951 55.2554 60 56.25 60H123.75C124.745 60 125.698 60.3951 126.402 61.0983C127.105 61.8016 127.5 62.7554 127.5 63.75C127.5 64.7446 127.105 65.6984 126.402 66.4016C125.698 67.1049 124.745 67.5 123.75 67.5H56.25C55.2554 67.5 54.3016 67.1049 53.5984 66.4016C52.8951 65.6984 52.5 64.7446 52.5 63.75ZM52.5 78.75C52.5 77.7554 52.8951 76.8016 53.5984 76.0983C54.3016 75.3951 55.2554 75 56.25 75H123.75C124.745 75 125.698 75.3951 126.402 76.0983C127.105 76.8016 127.5 77.7554 127.5 78.75C127.5 79.7446 127.105 80.6984 126.402 81.4016C125.698 82.1049 124.745 82.5 123.75 82.5H56.25C55.2554 82.5 54.3016 82.1049 53.5984 81.4016C52.8951 80.6984 52.5 79.7446 52.5 78.75ZM52.5 93.75C52.5 92.7554 52.8951 91.8016 53.5984 91.0983C54.3016 90.3951 55.2554 90 56.25 90H123.75C124.745 90 125.698 90.3951 126.402 91.0983C127.105 91.8016 127.5 92.7554 127.5 93.75C127.5 94.7446 127.105 95.6984 126.402 96.4016C125.698 97.1049 124.745 97.5 123.75 97.5H56.25C55.2554 97.5 54.3016 97.1049 53.5984 96.4016C52.8951 95.6984 52.5 94.7446 52.5 93.75ZM105 131.25C106.989 131.25 108.897 130.46 110.303 129.053C111.71 127.647 112.5 125.739 112.5 123.75C112.5 121.761 111.71 119.853 110.303 118.447C108.897 117.04 106.989 116.25 105 116.25C103.011 116.25 101.103 117.04 99.6967 118.447C98.2902 119.853 97.5 121.761 97.5 123.75C97.5 125.739 98.2902 127.647 99.6967 129.053C101.103 130.46 103.011 131.25 105 131.25ZM105 138.75C108.978 138.75 112.794 137.17 115.607 134.357C118.42 131.544 120 127.728 120 123.75C120 119.772 118.42 115.956 115.607 113.143C112.794 110.33 108.978 108.75 105 108.75C101.022 108.75 97.2064 110.33 94.3934 113.143C91.5804 115.956 90 119.772 90 123.75C90 127.728 91.5804 131.544 94.3934 134.357C97.2064 137.17 101.022 138.75 105 138.75Z" fill="#720708"/>
<path fill-rule="evenodd" clip-rule="evenodd" d="M101.25 131.25H93.75V165L105 159.375L116.25 165V131.25H108.75V152.865L105 150.99L101.25 152.865V131.25Z" fill="#720708"/>
</svg>
