<svg width="180" height="180" viewBox="0 0 180 180" fill="none" xmlns="http://www.w3.org/2000/svg">
<path fill-rule="evenodd" clip-rule="evenodd" d="M34.41 31.875C27.8325 31.875 22.5 37.275 22.5 43.9275V116.25C22.5 122.906 27.8325 128.302 34.41 128.302H74.1187V136.339H58.2338V144.375H121.766V136.339H105.881V128.302H145.59C152.168 128.302 157.5 122.906 157.5 116.25V43.9275C157.5 37.275 152.168 31.875 145.59 31.875H34.41ZM82.0575 136.339H97.9425V128.302H82.0575V136.339ZM30.4425 43.9275C30.4425 41.7112 32.22 39.9112 34.41 39.9112H145.59C147.78 39.9112 149.557 41.7112 149.557 43.9275V116.25C149.557 118.47 147.78 120.266 145.59 120.266H34.41C32.22 120.266 30.4425 118.466 30.4425 116.25V43.9275ZM58.2338 47.9475H50.295V55.9837H42.3525V64.0162H50.295V72.0525H58.2338V64.0162H66.1762V55.9875H58.2338V47.9512V47.9475ZM46.3237 80.0887C44.13 80.0887 42.3488 81.8887 42.3488 84.1087V100.177C42.3488 102.397 44.13 104.197 46.3237 104.197H62.205C64.3987 104.197 66.1762 102.397 66.1762 100.177V84.1125C66.1762 81.8925 64.3987 80.0925 62.205 80.0925H46.3237V80.0887ZM50.295 96.1612V88.125H58.2338V96.1612H50.295ZM78.09 51.9637C78.09 49.7437 79.8675 47.9475 82.0612 47.9475H97.9425C100.136 47.9475 101.914 49.7475 101.914 51.9637V68.0362C101.914 70.2562 100.136 72.0525 97.9388 72.0525H82.0612C79.8675 72.0525 78.0862 70.2525 78.0862 68.0362V51.9637H78.09ZM86.0287 55.9837V64.0162H93.9713V55.9875H86.0287V55.9837ZM82.0612 80.0887C79.8675 80.0887 78.0862 81.8887 78.0862 84.1087V100.177C78.0862 102.397 79.8675 104.197 82.0612 104.197H97.9425C100.136 104.197 101.914 102.397 101.914 100.177V84.1125C101.914 81.8925 100.136 80.0925 97.9388 80.0925H82.0612V80.0887ZM86.0287 96.1612V88.125H93.9713V96.1612H86.0287ZM113.824 51.9637C113.824 49.7437 115.601 47.9475 117.795 47.9475H133.676C135.87 47.9475 137.648 49.7475 137.648 51.9637V68.0362C137.648 70.2562 135.87 72.0525 133.676 72.0525H117.795C115.601 72.0525 113.824 70.2525 113.824 68.0362V51.9637ZM121.766 55.9837V64.0162H129.705V55.9875H121.766V55.9837Z" fill="#720708"/>
</svg>
