<svg width="180" height="180" viewBox="0 0 180 180" fill="none" xmlns="http://www.w3.org/2000/svg">
<path fill-rule="evenodd" clip-rule="evenodd" d="M49.5 78.75C49.5 78.75 52.56 78.3375 57 77.1525C68.7075 74.0288 90 65.55 90 45.1575C90 42.1821 89.4139 39.2358 88.2753 36.4869C87.1367 33.738 85.4677 31.2402 83.3638 29.1363C81.2598 27.0323 78.7621 25.3634 76.0131 24.2247C73.2642 23.0861 70.3179 22.5 67.3425 22.5H45.1575C42.1578 22.4615 39.1803 23.0189 36.3977 24.1402C33.6152 25.2614 31.083 26.9241 28.9481 29.0317C26.8132 31.1393 25.1181 33.6498 23.9612 36.4177C22.8043 39.1856 22.2085 42.1557 22.2085 45.1557C22.2085 48.1556 22.8043 51.1257 23.9612 53.8936C25.1181 56.6615 26.8132 59.1721 28.9481 61.2797C31.083 63.3873 33.6152 65.0499 36.3977 66.1712C39.1803 67.2924 42.1578 67.8499 45.1575 67.8113H49.5V78.75ZM57 60.3113H45.1575C43.1472 60.3429 41.1506 59.9743 39.2842 59.2268C37.4177 58.4794 35.7186 57.3681 34.2857 55.9576C32.8529 54.5471 31.715 52.8657 30.9383 51.0112C30.1616 49.1567 29.7616 47.1662 29.7616 45.1557C29.7616 43.1451 30.1616 41.1546 30.9383 39.3001C31.715 37.4456 32.8529 35.7642 34.2857 34.3537C35.7186 32.9433 37.4177 31.832 39.2842 31.0845C41.1506 30.3371 43.1472 29.9684 45.1575 30H67.3425C69.333 30 71.304 30.3921 73.143 31.1538C74.982 31.9156 76.653 33.0321 78.0605 34.4396C79.468 35.8471 80.5845 37.518 81.3462 39.357C82.1079 41.196 82.5 43.167 82.5 45.1575C82.5 54.8438 75.72 61.2938 66.4912 65.745C63.4282 67.2004 60.2545 68.4104 57 69.3638V60.3113ZM54.375 120C62.6625 120 69.375 113.288 69.375 105C69.375 96.7125 62.6625 90 54.375 90C46.0875 90 39.375 96.7125 39.375 105C39.375 113.288 46.0875 120 54.375 120ZM61.875 105C61.875 106.989 61.0848 108.897 59.6783 110.303C58.2718 111.71 56.3641 112.5 54.375 112.5C52.3859 112.5 50.4782 111.71 49.0717 110.303C47.6652 108.897 46.875 106.989 46.875 105C46.875 103.011 47.6652 101.103 49.0717 99.6967C50.4782 98.2902 52.3859 97.5 54.375 97.5C56.3641 97.5 58.2718 98.2902 59.6783 99.6967C61.0848 101.103 61.875 103.011 61.875 105ZM22.5 143.501C22.5 132.859 43.7362 127.5 54.375 127.5C65.0137 127.5 86.25 132.863 86.25 143.501V157.5H22.5V143.501ZM30 150V143.501C30 143.464 30 143.389 30.0975 143.201C30.2175 142.969 30.4912 142.56 31.0837 142.013C32.3175 140.869 34.3837 139.62 37.245 138.469C42.9825 136.163 49.995 135 54.375 135C58.7512 135 65.7712 136.163 71.505 138.469C74.3625 139.62 76.4325 140.869 77.6662 142.013C78.2587 142.56 78.5325 142.969 78.6525 143.198C78.75 143.385 78.75 143.468 78.75 143.498V150H30ZM140.625 105C140.625 113.288 133.912 120 125.625 120C117.337 120 110.625 113.288 110.625 105C110.625 96.7125 117.337 90 125.625 90C133.912 90 140.625 96.7125 140.625 105ZM125.625 112.5C127.614 112.5 129.522 111.71 130.928 110.303C132.335 108.897 133.125 106.989 133.125 105C133.125 103.011 132.335 101.103 130.928 99.6967C129.522 98.2902 127.614 97.5 125.625 97.5C123.636 97.5 121.728 98.2902 120.322 99.6967C118.915 101.103 118.125 103.011 118.125 105C118.125 106.989 118.915 108.897 120.322 110.303C121.728 111.71 123.636 112.5 125.625 112.5ZM93.75 143.501C93.75 132.859 114.986 127.5 125.625 127.5C136.264 127.5 157.5 132.863 157.5 143.501V157.5H93.75V143.501ZM101.25 150V143.501C101.25 143.464 101.25 143.389 101.347 143.201C101.467 142.969 101.741 142.56 102.33 142.013C103.567 140.869 105.637 139.62 108.495 138.469C114.232 136.163 121.245 135 125.625 135C130.001 135 137.021 136.163 142.755 138.469C145.612 139.62 147.683 140.869 148.92 142.013C149.509 142.56 149.782 142.969 149.902 143.198C150 143.385 150 143.468 150 143.498V150H101.25ZM126 80.6475C130.387 82.0275 133.5 82.5 133.5 82.5V71.5613H134.842C137.842 71.5999 140.82 71.0424 143.602 69.9212C146.385 68.7999 148.917 67.1373 151.052 65.0297C153.187 62.9221 154.882 60.4115 156.039 57.6436C157.196 54.8757 157.791 51.9056 157.791 48.9057C157.791 45.9057 157.196 42.9356 156.039 40.1677C154.882 37.3998 153.187 34.8893 151.052 32.7817C148.917 30.6741 146.385 29.0114 143.602 27.8902C140.82 26.7689 137.842 26.2115 134.842 26.25H120.157C114.148 26.25 108.385 28.6372 104.136 32.8863C99.8871 37.1354 97.5 42.8984 97.5 48.9075C97.5 68.7675 115.451 77.3325 126 80.6475ZM134.842 64.0613H126V72.735C123.619 71.8846 121.305 70.8567 119.077 69.66C111.262 65.4188 105 59.055 105 48.9038C105.001 44.8844 106.598 41.03 109.441 38.1882C112.283 35.3465 116.138 33.75 120.157 33.75H134.842C136.853 33.7184 138.849 34.0871 140.716 34.8345C142.582 35.582 144.281 36.6933 145.714 38.1037C147.147 39.5142 148.285 41.1956 149.062 43.0501C149.838 44.9046 150.238 46.8951 150.238 48.9057C150.238 50.9162 149.838 52.9067 149.062 54.7612C148.285 56.6157 147.147 58.2971 145.714 59.7076C144.281 61.1181 142.582 62.2294 140.716 62.9768C138.849 63.7243 136.853 64.0929 134.842 64.0613Z" fill="#720708"/>
</svg>
